# xmcd
#
# Track frame offsets:
#	150
#	25209
#	50240
#	70284
#	96754
#	109665
#	128037
#	144013
#	165366
#	187611
#	202946
#	225915
#	243785
#	263634
#	276740
#	300601
#
# Disc length: 4237 seconds
#
# Revision: 0
# Processed by: cddbd v1.5.2PL0 Copyright (c) Steve Scherf et al.
# Submitted via: EasyCDDAExtractor 11.0.0.1
#
DISCID=cc108b10
DTITLE=Boyz II Men - The Ballads Collection
DYEAR=1900
DGENRE=Soul
TTITLE0=On bended knee
TTITLE1=Doin`just fine
TTITLE2=Please don`t go
TTITLE3=End of the road
TTITLE4=It`s so hard to say goodbye to yesterday
TTITLE5=Can you stand the rain
TTITLE6=Girl in the life magazine
TTITLE7=One sweet day with Mariah Carey
TTITLE8=Four seasons of loneliness
TTITLE9=Water runs dry
TTITLE10=A song for mama
TTITLE11=I`ll make love to you
TTITLE12=I will get there
TTITLE13=Yesterday(spanish version)
TTITLE14=End of the road (instrumental)
TTITLE15=So amazing
EXTD=
EXTT0=
EXTT1=
EXTT2=
EXTT3=
EXTT4=
EXTT5=
EXTT6=
EXTT7=
EXTT8=
EXTT9=
EXTT10=
EXTT11=
EXTT12=
EXTT13=
EXTT14=
EXTT15=
PLAYORDER=
